<svg width="852" height="833" viewBox="0 0 852 833" fill="none" xmlns="http://www.w3.org/2000/svg">
<rect x="116.73" y="168.007" width="601.847" height="601.847" rx="300.924" fill="url(#paint0_linear_198_79100)"/>
<path d="M343.313 452.326C347.765 452.326 351.512 453.67 354.553 456.359C357.594 459.004 359.115 462.706 359.115 467.466C359.115 472.227 357.506 475.951 354.288 478.64C351.115 481.329 347.214 482.673 342.586 482.673C338.839 482.673 335.534 481.836 332.669 480.161C329.804 478.486 327.732 476.017 326.454 472.756L334.255 468.194C335.401 471.896 338.178 473.747 342.586 473.747C344.922 473.747 346.729 473.196 348.007 472.094C349.33 470.948 349.991 469.406 349.991 467.466C349.991 465.571 349.352 464.05 348.074 462.904C346.795 461.758 345.054 461.185 342.85 461.185H328.834L330.685 435.466H356.933V443.995H339.148L338.553 452.326H343.313ZM381.074 482.673C375.3 482.673 370.76 480.491 367.454 476.128C364.192 471.72 362.562 465.88 362.562 458.607C362.562 451.334 364.192 445.516 367.454 441.152C370.76 436.745 375.3 434.541 381.074 434.541C386.892 434.541 391.432 436.745 394.694 441.152C397.956 445.516 399.586 451.334 399.586 458.607C399.586 465.88 397.956 471.72 394.694 476.128C391.432 480.491 386.892 482.673 381.074 482.673ZM374.066 469.913C375.653 472.469 377.989 473.747 381.074 473.747C384.159 473.747 386.495 472.447 388.082 469.847C389.713 467.246 390.529 463.499 390.529 458.607C390.529 453.67 389.713 449.902 388.082 447.301C386.495 444.701 384.159 443.4 381.074 443.4C377.989 443.4 375.653 444.701 374.066 447.301C372.479 449.902 371.686 453.67 371.686 458.607C371.686 463.544 372.479 467.312 374.066 469.913ZM422.719 482.673C416.945 482.673 412.405 480.491 409.099 476.128C405.838 471.72 404.207 465.88 404.207 458.607C404.207 451.334 405.838 445.516 409.099 441.152C412.405 436.745 416.945 434.541 422.719 434.541C428.537 434.541 433.077 436.745 436.339 441.152C439.601 445.516 441.232 451.334 441.232 458.607C441.232 465.88 439.601 471.72 436.339 476.128C433.077 480.491 428.537 482.673 422.719 482.673ZM415.711 469.913C417.298 472.469 419.634 473.747 422.719 473.747C425.805 473.747 428.141 472.447 429.727 469.847C431.358 467.246 432.174 463.499 432.174 458.607C432.174 453.67 431.358 449.902 429.727 447.301C428.141 444.701 425.805 443.4 422.719 443.4C419.634 443.4 417.298 444.701 415.711 447.301C414.124 449.902 413.331 453.67 413.331 458.607C413.331 463.544 414.124 467.312 415.711 469.913ZM464.364 482.673C458.59 482.673 454.05 480.491 450.744 476.128C447.483 471.72 445.852 465.88 445.852 458.607C445.852 451.334 447.483 445.516 450.744 441.152C454.05 436.745 458.59 434.541 464.364 434.541C470.182 434.541 474.722 436.745 477.984 441.152C481.246 445.516 482.877 451.334 482.877 458.607C482.877 465.88 481.246 471.72 477.984 476.128C474.722 480.491 470.182 482.673 464.364 482.673ZM457.356 469.913C458.943 472.469 461.279 473.747 464.364 473.747C467.45 473.747 469.786 472.447 471.373 469.847C473.003 467.246 473.819 463.499 473.819 458.607C473.819 453.67 473.003 449.902 471.373 447.301C469.786 444.701 467.45 443.4 464.364 443.4C461.279 443.4 458.943 444.701 457.356 447.301C455.769 449.902 454.976 453.67 454.976 458.607C454.976 463.544 455.769 467.312 457.356 469.913ZM518.439 454.574V462.574H507.53V473.483H499.53V462.574H488.687V454.574H499.53V443.731H507.53V454.574H518.439Z" fill="#00949B"/>
<path d="M362.337 538.147C360.05 538.147 358.09 537.61 356.456 536.537C354.846 535.463 353.714 533.993 353.061 532.127L355.861 530.516C356.818 533.48 359 534.962 362.407 534.962C364.087 534.962 365.37 534.623 366.257 533.947C367.144 533.247 367.587 532.325 367.587 531.181C367.587 530.015 367.144 529.14 366.257 528.556C365.37 527.973 363.888 527.355 361.811 526.701C360.785 526.374 360.003 526.118 359.466 525.931C358.93 525.721 358.253 525.418 357.436 525.021C356.643 524.601 356.048 524.181 355.651 523.761C355.254 523.318 354.893 522.746 354.566 522.046C354.263 521.346 354.111 520.552 354.111 519.666C354.111 517.542 354.858 515.862 356.351 514.625C357.845 513.365 359.665 512.735 361.811 512.735C363.748 512.735 365.428 513.225 366.852 514.205C368.299 515.185 369.384 516.48 370.107 518.091L367.377 519.666C366.327 517.145 364.472 515.885 361.811 515.885C360.481 515.885 359.408 516.212 358.591 516.865C357.775 517.519 357.366 518.406 357.366 519.526C357.366 520.599 357.751 521.416 358.521 521.976C359.291 522.536 360.621 523.119 362.512 523.726C363.188 523.936 363.667 524.088 363.947 524.181C364.227 524.274 364.658 524.438 365.242 524.671C365.848 524.904 366.292 525.091 366.572 525.231C366.852 525.371 367.225 525.569 367.692 525.826C368.182 526.083 368.544 526.328 368.777 526.561C369.01 526.794 369.279 527.086 369.582 527.436C369.909 527.763 370.142 528.101 370.282 528.451C370.422 528.801 370.539 529.21 370.632 529.676C370.749 530.12 370.807 530.598 370.807 531.111C370.807 533.258 370.025 534.973 368.462 536.257C366.898 537.517 364.857 538.147 362.337 538.147ZM383.355 523.131H378.699V532.617C378.699 533.48 378.863 534.098 379.189 534.472C379.539 534.822 380.064 535.008 380.764 535.032C381.465 535.032 382.328 535.008 383.355 534.962V537.692C380.694 538.042 378.746 537.832 377.509 537.062C376.272 536.268 375.654 534.787 375.654 532.617V523.131H372.189V520.191H375.654V516.2L378.699 515.29V520.191H383.355V523.131ZM399.138 520.191H402.183V537.692H399.138V535.172C397.902 537.155 396.011 538.147 393.468 538.147C391.414 538.147 389.769 537.505 388.533 536.222C387.296 534.915 386.677 533.153 386.677 530.936V520.191H389.723V530.761C389.723 532.185 390.108 533.293 390.878 534.087C391.648 534.857 392.709 535.242 394.063 535.242C395.58 535.242 396.805 534.775 397.738 533.842C398.672 532.885 399.138 531.426 399.138 529.466V520.191ZM421.311 513.19H424.356V537.692H421.311V534.682C419.794 536.992 417.589 538.147 414.695 538.147C412.245 538.147 410.157 537.26 408.43 535.487C406.703 533.69 405.84 531.508 405.84 528.941C405.84 526.374 406.703 524.204 408.43 522.431C410.157 520.634 412.245 519.736 414.695 519.736C417.589 519.736 419.794 520.891 421.311 523.201V513.19ZM415.08 535.207C416.854 535.207 418.335 534.612 419.526 533.422C420.716 532.208 421.311 530.715 421.311 528.941C421.311 527.168 420.716 525.686 419.526 524.496C418.335 523.283 416.854 522.676 415.08 522.676C413.33 522.676 411.86 523.283 410.67 524.496C409.48 525.686 408.885 527.168 408.885 528.941C408.885 530.715 409.48 532.208 410.67 533.422C411.86 534.612 413.33 535.207 415.08 535.207ZM431.105 530.341C431.408 531.905 432.12 533.118 433.24 533.982C434.383 534.845 435.783 535.277 437.44 535.277C439.75 535.277 441.43 534.425 442.481 532.722L445.071 534.192C443.367 536.829 440.8 538.147 437.37 538.147C434.593 538.147 432.33 537.284 430.58 535.557C428.853 533.807 427.99 531.601 427.99 528.941C427.99 526.304 428.841 524.111 430.545 522.361C432.248 520.611 434.453 519.736 437.16 519.736C439.727 519.736 441.816 520.646 443.426 522.466C445.059 524.263 445.876 526.433 445.876 528.976C445.876 529.42 445.841 529.875 445.771 530.341H431.105ZM437.16 522.606C435.527 522.606 434.173 523.073 433.1 524.006C432.027 524.916 431.361 526.141 431.105 527.681H442.796C442.539 526.024 441.886 524.764 440.835 523.901C439.785 523.038 438.56 522.606 437.16 522.606ZM458.092 519.736C460.145 519.736 461.79 520.389 463.027 521.696C464.264 522.979 464.882 524.729 464.882 526.946V537.692H461.837V527.121C461.837 525.698 461.452 524.601 460.682 523.831C459.912 523.038 458.85 522.641 457.497 522.641C455.98 522.641 454.755 523.119 453.822 524.076C452.888 525.009 452.422 526.456 452.422 528.416V537.692H449.376V520.191H452.422V522.711C453.658 520.727 455.548 519.736 458.092 519.736ZM478.654 523.131H473.999V532.617C473.999 533.48 474.162 534.098 474.489 534.472C474.839 534.822 475.364 535.008 476.064 535.032C476.764 535.032 477.627 535.008 478.654 534.962V537.692C475.994 538.042 474.046 537.832 472.809 537.062C471.572 536.268 470.954 534.787 470.954 532.617V523.131H467.488V520.191H470.954V516.2L473.999 515.29V520.191H478.654V523.131ZM484.03 524.916C484.03 525.593 484.368 526.141 485.045 526.561C485.722 526.958 486.539 527.285 487.495 527.541C488.452 527.775 489.409 528.055 490.366 528.381C491.322 528.685 492.139 529.221 492.816 529.991C493.492 530.738 493.831 531.706 493.831 532.897C493.831 534.483 493.212 535.755 491.976 536.712C490.762 537.669 489.199 538.147 487.285 538.147C485.582 538.147 484.123 537.774 482.91 537.027C481.697 536.28 480.833 535.288 480.32 534.052L482.945 532.547C483.225 533.387 483.75 534.052 484.52 534.542C485.29 535.032 486.212 535.277 487.285 535.277C488.289 535.277 489.117 535.09 489.77 534.717C490.424 534.32 490.751 533.713 490.751 532.897C490.751 532.22 490.412 531.683 489.735 531.286C489.059 530.866 488.242 530.54 487.285 530.306C486.329 530.05 485.372 529.758 484.415 529.431C483.458 529.105 482.642 528.568 481.965 527.821C481.288 527.074 480.95 526.118 480.95 524.951C480.95 523.434 481.533 522.186 482.7 521.206C483.89 520.226 485.372 519.736 487.145 519.736C488.569 519.736 489.829 520.062 490.926 520.716C492.046 521.346 492.886 522.232 493.446 523.376L490.891 524.811C490.261 523.318 489.012 522.571 487.145 522.571C486.282 522.571 485.547 522.781 484.94 523.201C484.333 523.598 484.03 524.169 484.03 524.916Z" fill="#121212"/>
<g filter="url(#filter0_d_198_79100)">
<rect x="42.8359" y="337.186" width="237.239" height="237.239" rx="118.619" fill="white"/>
</g>
<g filter="url(#filter1_d_198_79100)">
<rect x="558.152" y="407.191" width="250.851" height="250.851" rx="125.425" fill="white"/>
</g>
<g filter="url(#filter2_d_198_79100)">
<rect x="303.41" y="39.6653" width="227.516" height="227.516" rx="113.758" fill="white"/>
</g>
<rect x="396.75" y="700.822" width="123.481" height="123.481" rx="61.7404" fill="#00949B"/>
<rect x="141.035" y="763.049" width="69.0325" height="69.0325" rx="34.5163" fill="#FF6477"/>
<rect x="673.852" y="168.007" width="69.0325" height="69.0325" rx="34.5163" fill="#FF6477"/>
<rect x="104.09" y="153.423" width="57.3651" height="57.3651" rx="28.6825" fill="#00949B"/>
<rect x="644.684" y="720.268" width="29.1687" height="29.1687" rx="14.5843" fill="#00949B"/>
<path d="M638.274 508.882C638.274 511.402 637.621 513.611 636.314 515.509H636.361L626.187 530.863H618.813L626.093 520.222C622.702 520.16 619.933 519.087 617.786 517.002C615.67 514.886 614.612 512.18 614.612 508.882C614.612 505.552 615.701 502.83 617.879 500.714C620.088 498.599 622.935 497.541 626.42 497.541C629.936 497.541 632.783 498.599 634.961 500.714C637.17 502.799 638.274 505.521 638.274 508.882ZM621.006 508.882C621.006 510.499 621.52 511.791 622.546 512.755C623.604 513.72 624.895 514.202 626.42 514.202C628.007 514.202 629.313 513.72 630.34 512.755C631.367 511.791 631.88 510.499 631.88 508.882C631.88 507.264 631.367 505.988 630.34 505.055C629.313 504.09 628.007 503.608 626.42 503.608C624.895 503.608 623.604 504.09 622.546 505.055C621.52 506.019 621.006 507.295 621.006 508.882ZM654.036 531.516C649.96 531.516 646.756 529.976 644.422 526.896C642.12 523.785 640.969 519.662 640.969 514.529C640.969 509.395 642.12 505.288 644.422 502.208C646.756 499.096 649.96 497.541 654.036 497.541C658.143 497.541 661.348 499.096 663.65 502.208C665.953 505.288 667.104 509.395 667.104 514.529C667.104 519.662 665.953 523.785 663.65 526.896C661.348 529.976 658.143 531.516 654.036 531.516ZM649.089 522.509C650.209 524.314 651.858 525.216 654.036 525.216C656.214 525.216 657.863 524.298 658.983 522.462C660.134 520.627 660.71 517.982 660.71 514.529C660.71 511.044 660.134 508.384 658.983 506.548C657.863 504.712 656.214 503.794 654.036 503.794C651.858 503.794 650.209 504.712 649.089 506.548C647.969 508.384 647.409 511.044 647.409 514.529C647.409 518.013 647.969 520.673 649.089 522.509ZM683.433 531.516C679.357 531.516 676.152 529.976 673.819 526.896C671.516 523.785 670.365 519.662 670.365 514.529C670.365 509.395 671.516 505.288 673.819 502.208C676.152 499.096 679.357 497.541 683.433 497.541C687.54 497.541 690.744 499.096 693.047 502.208C695.349 505.288 696.5 509.395 696.5 514.529C696.5 519.662 695.349 523.785 693.047 526.896C690.744 529.976 687.54 531.516 683.433 531.516ZM678.486 522.509C679.606 524.314 681.255 525.216 683.433 525.216C685.611 525.216 687.26 524.298 688.38 522.462C689.531 520.627 690.106 517.982 690.106 514.529C690.106 511.044 689.531 508.384 688.38 506.548C687.26 504.712 685.611 503.794 683.433 503.794C681.255 503.794 679.606 504.712 678.486 506.548C677.366 508.384 676.806 511.044 676.806 514.529C676.806 518.013 677.366 520.673 678.486 522.509ZM712.829 531.516C708.753 531.516 705.549 529.976 703.215 526.896C700.913 523.785 699.762 519.662 699.762 514.529C699.762 509.395 700.913 505.288 703.215 502.208C705.549 499.096 708.753 497.541 712.829 497.541C716.936 497.541 720.141 499.096 722.443 502.208C724.746 505.288 725.897 509.395 725.897 514.529C725.897 519.662 724.746 523.785 722.443 526.896C720.141 529.976 716.936 531.516 712.829 531.516ZM707.882 522.509C709.002 524.314 710.651 525.216 712.829 525.216C715.007 525.216 716.656 524.298 717.776 522.462C718.927 520.627 719.503 517.982 719.503 514.529C719.503 511.044 718.927 508.384 717.776 506.548C716.656 504.712 715.007 503.794 712.829 503.794C710.651 503.794 709.002 504.712 707.882 506.548C706.762 508.384 706.202 511.044 706.202 514.529C706.202 518.013 706.762 520.673 707.882 522.509ZM751 511.682V517.329H743.299V525.029H737.652V517.329H729.998V511.682H737.652V504.028H743.299V511.682H751Z" fill="#00949B"/>
<path d="M606.466 569.111C603.993 569.111 601.947 568.294 600.329 566.661C598.727 565.027 597.926 563.021 597.926 560.64C597.926 558.26 598.727 556.253 600.329 554.62C601.947 552.987 603.993 552.17 606.466 552.17C607.96 552.17 609.329 552.528 610.573 553.243C611.833 553.959 612.813 554.923 613.514 556.137L611.623 557.233C611.157 556.331 610.457 555.616 609.523 555.087C608.605 554.542 607.586 554.27 606.466 554.27C604.584 554.27 603.044 554.877 601.846 556.09C600.664 557.303 600.073 558.82 600.073 560.64C600.073 562.445 600.664 563.954 601.846 565.167C603.044 566.381 604.584 566.987 606.466 566.987C607.586 566.987 608.605 566.723 609.523 566.194C610.457 565.65 611.157 564.934 611.623 564.047L613.514 565.121C612.829 566.334 611.857 567.306 610.597 568.038C609.337 568.753 607.96 569.111 606.466 569.111ZM625.563 567.338C624.365 568.52 622.911 569.111 621.199 569.111C619.488 569.111 618.034 568.52 616.836 567.338C615.654 566.155 615.062 564.701 615.062 562.974C615.062 561.247 615.654 559.793 616.836 558.61C618.034 557.428 619.488 556.837 621.199 556.837C622.911 556.837 624.365 557.428 625.563 558.61C626.761 559.793 627.36 561.247 627.36 562.974C627.36 564.701 626.761 566.155 625.563 567.338ZM621.199 567.128C622.366 567.128 623.346 566.731 624.14 565.937C624.933 565.144 625.33 564.156 625.33 562.974C625.33 561.792 624.933 560.804 624.14 560.01C623.346 559.217 622.366 558.82 621.199 558.82C620.048 558.82 619.076 559.217 618.283 560.01C617.489 560.804 617.093 561.792 617.093 562.974C617.093 564.156 617.489 565.144 618.283 565.937C619.076 566.731 620.048 567.128 621.199 567.128ZM637.804 557.14H639.834V568.808H637.804V567.128C636.979 568.45 635.719 569.111 634.023 569.111C632.655 569.111 631.558 568.683 630.733 567.828C629.909 566.956 629.497 565.782 629.497 564.304V557.14H631.527V564.187C631.527 565.136 631.783 565.875 632.297 566.404C632.81 566.917 633.518 567.174 634.42 567.174C635.431 567.174 636.248 566.863 636.87 566.241C637.493 565.603 637.804 564.631 637.804 563.324V557.14ZM644.955 559.1C645.624 557.654 646.837 556.93 648.595 556.93V559.054C647.599 559.007 646.744 559.271 646.028 559.847C645.313 560.423 644.955 561.348 644.955 562.624V568.808H642.925V557.14H644.955V559.1ZM651.899 560.29C651.899 560.742 652.124 561.107 652.575 561.387C653.026 561.652 653.571 561.869 654.209 562.04C654.847 562.196 655.484 562.383 656.122 562.601C656.76 562.803 657.305 563.161 657.756 563.674C658.207 564.172 658.432 564.817 658.432 565.611C658.432 566.669 658.02 567.516 657.196 568.154C656.387 568.792 655.344 569.111 654.069 569.111C652.933 569.111 651.961 568.862 651.152 568.364C650.343 567.866 649.767 567.205 649.425 566.381L651.175 565.377C651.362 565.937 651.712 566.381 652.225 566.707C652.739 567.034 653.353 567.198 654.069 567.198C654.738 567.198 655.29 567.073 655.726 566.824C656.161 566.56 656.379 566.155 656.379 565.611C656.379 565.16 656.153 564.802 655.702 564.537C655.251 564.257 654.707 564.04 654.069 563.884C653.431 563.713 652.793 563.518 652.155 563.301C651.517 563.083 650.973 562.725 650.522 562.227C650.071 561.729 649.845 561.092 649.845 560.314C649.845 559.303 650.234 558.47 651.012 557.817C651.805 557.163 652.793 556.837 653.975 556.837C654.924 556.837 655.764 557.055 656.496 557.49C657.242 557.91 657.802 558.501 658.176 559.264L656.472 560.22C656.052 559.225 655.22 558.727 653.975 558.727C653.4 558.727 652.91 558.867 652.505 559.147C652.101 559.411 651.899 559.793 651.899 560.29ZM661.94 563.907C662.143 564.95 662.617 565.759 663.364 566.334C664.126 566.91 665.06 567.198 666.164 567.198C667.704 567.198 668.824 566.63 669.524 565.494L671.251 566.474C670.115 568.232 668.404 569.111 666.117 569.111C664.266 569.111 662.757 568.535 661.59 567.384C660.439 566.217 659.864 564.747 659.864 562.974C659.864 561.216 660.431 559.754 661.567 558.587C662.703 557.42 664.173 556.837 665.977 556.837C667.689 556.837 669.081 557.443 670.154 558.657C671.243 559.855 671.788 561.302 671.788 562.997C671.788 563.293 671.764 563.596 671.718 563.907H661.94ZM665.977 558.75C664.888 558.75 663.986 559.061 663.271 559.684C662.555 560.29 662.112 561.107 661.94 562.134H669.734C669.563 561.029 669.128 560.189 668.428 559.614C667.728 559.038 666.911 558.75 665.977 558.75ZM675.416 560.29C675.416 560.742 675.641 561.107 676.093 561.387C676.544 561.652 677.088 561.869 677.726 562.04C678.364 562.196 679.002 562.383 679.639 562.601C680.277 562.803 680.822 563.161 681.273 563.674C681.724 564.172 681.95 564.817 681.95 565.611C681.95 566.669 681.537 567.516 680.713 568.154C679.904 568.792 678.862 569.111 677.586 569.111C676.45 569.111 675.478 568.862 674.669 568.364C673.86 567.866 673.285 567.205 672.942 566.381L674.692 565.377C674.879 565.937 675.229 566.381 675.743 566.707C676.256 567.034 676.87 567.198 677.586 567.198C678.255 567.198 678.807 567.073 679.243 566.824C679.678 566.56 679.896 566.155 679.896 565.611C679.896 565.16 679.671 564.802 679.219 564.537C678.768 564.257 678.224 564.04 677.586 563.884C676.948 563.713 676.31 563.518 675.673 563.301C675.035 563.083 674.49 562.725 674.039 562.227C673.588 561.729 673.362 561.092 673.362 560.314C673.362 559.303 673.751 558.47 674.529 557.817C675.323 557.163 676.31 556.837 677.493 556.837C678.442 556.837 679.282 557.055 680.013 557.49C680.76 557.91 681.32 558.501 681.693 559.264L679.99 560.22C679.569 559.225 678.737 558.727 677.493 558.727C676.917 558.727 676.427 558.867 676.023 559.147C675.618 559.411 675.416 559.793 675.416 560.29ZM703.978 566.637C702.345 568.286 700.346 569.111 697.981 569.111C695.616 569.111 693.617 568.286 691.984 566.637C690.35 564.988 689.534 562.989 689.534 560.64C689.534 558.276 690.35 556.277 691.984 554.643C693.617 552.994 695.616 552.17 697.981 552.17C700.346 552.17 702.345 552.994 703.978 554.643C705.627 556.277 706.452 558.276 706.452 560.64C706.452 562.989 705.627 564.988 703.978 566.637ZM693.477 565.167C694.691 566.381 696.192 566.987 697.981 566.987C699.77 566.987 701.263 566.381 702.461 565.167C703.675 563.938 704.281 562.429 704.281 560.64C704.281 558.836 703.675 557.327 702.461 556.113C701.263 554.884 699.77 554.27 697.981 554.27C696.192 554.27 694.691 554.884 693.477 556.113C692.279 557.327 691.681 558.836 691.681 560.64C691.681 562.429 692.279 563.938 693.477 565.167ZM721.195 553.897C719.157 553.725 718.138 554.612 718.138 556.557V557.14H721.195V559.1H718.138V568.808H716.108V559.1H711.767V568.808H709.737V559.1H707.87V557.14H709.737V556.79C709.737 555.219 710.173 554.029 711.044 553.22C711.931 552.411 713.199 552.061 714.848 552.17V554.13C712.794 553.959 711.767 554.846 711.767 556.79V557.14H716.108V556.557C716.108 554.986 716.543 553.795 717.414 552.987C718.286 552.178 719.546 551.828 721.195 551.936V553.897ZM723.514 563.907C723.716 564.95 724.19 565.759 724.937 566.334C725.699 566.91 726.633 567.198 727.737 567.198C729.277 567.198 730.398 566.63 731.098 565.494L732.824 566.474C731.689 568.232 729.978 569.111 727.691 569.111C725.839 569.111 724.33 568.535 723.164 567.384C722.013 566.217 721.437 564.747 721.437 562.974C721.437 561.216 722.005 559.754 723.14 558.587C724.276 557.42 725.746 556.837 727.551 556.837C729.262 556.837 730.654 557.443 731.728 558.657C732.817 559.855 733.361 561.302 733.361 562.997C733.361 563.293 733.338 563.596 733.291 563.907H723.514ZM727.551 558.75C726.462 558.75 725.559 559.061 724.844 559.684C724.128 560.29 723.685 561.107 723.514 562.134H731.308C731.136 561.029 730.701 560.189 730.001 559.614C729.301 559.038 728.484 558.75 727.551 558.75ZM737.725 559.1C738.394 557.654 739.607 556.93 741.365 556.93V559.054C740.37 559.007 739.514 559.271 738.798 559.847C738.083 560.423 737.725 561.348 737.725 562.624V568.808H735.695V557.14H737.725V559.1ZM744.137 563.907C744.339 564.95 744.814 565.759 745.56 566.334C746.323 566.91 747.256 567.198 748.361 567.198C749.901 567.198 751.021 566.63 751.721 565.494L753.448 566.474C752.312 568.232 750.601 569.111 748.314 569.111C746.463 569.111 744.954 568.535 743.787 567.384C742.636 566.217 742.06 564.747 742.06 562.974C742.06 561.216 742.628 559.754 743.764 558.587C744.899 557.42 746.369 556.837 748.174 556.837C749.885 556.837 751.277 557.443 752.351 558.657C753.44 559.855 753.984 561.302 753.984 562.997C753.984 563.293 753.961 563.596 753.914 563.907H744.137ZM748.174 558.75C747.085 558.75 746.183 559.061 745.467 559.684C744.751 560.29 744.308 561.107 744.137 562.134H751.931C751.76 561.029 751.324 560.189 750.624 559.614C749.924 559.038 749.107 558.75 748.174 558.75ZM765.956 552.473H767.986V568.808H765.956V566.801C764.945 568.341 763.475 569.111 761.546 569.111C759.912 569.111 758.52 568.52 757.369 567.338C756.217 566.14 755.642 564.685 755.642 562.974C755.642 561.263 756.217 559.816 757.369 558.634C758.52 557.436 759.912 556.837 761.546 556.837C763.475 556.837 764.945 557.607 765.956 559.147V552.473ZM761.802 567.151C762.985 567.151 763.972 566.754 764.766 565.961C765.559 565.152 765.956 564.156 765.956 562.974C765.956 561.792 765.559 560.804 764.766 560.01C763.972 559.201 762.985 558.797 761.802 558.797C760.635 558.797 759.655 559.201 758.862 560.01C758.069 560.804 757.672 561.792 757.672 562.974C757.672 564.156 758.069 565.152 758.862 565.961C759.655 566.754 760.635 567.151 761.802 567.151Z" fill="#121212"/>
<path d="M108.888 421.383H129.983V426.844L118.922 454.052H112.108L122.842 427.544H108.888V421.383ZM144.038 454.706C139.963 454.706 136.758 453.165 134.424 450.085C132.122 446.974 130.971 442.851 130.971 437.718C130.971 432.584 132.122 428.477 134.424 425.397C136.758 422.285 139.963 420.73 144.038 420.73C148.145 420.73 151.35 422.285 153.652 425.397C155.955 428.477 157.106 432.584 157.106 437.718C157.106 442.851 155.955 446.974 153.652 450.085C151.35 453.165 148.145 454.706 144.038 454.706ZM139.091 445.698C140.211 447.503 141.86 448.405 144.038 448.405C146.216 448.405 147.865 447.487 148.985 445.652C150.137 443.816 150.712 441.171 150.712 437.718C150.712 434.233 150.137 431.573 148.985 429.737C147.865 427.901 146.216 426.984 144.038 426.984C141.86 426.984 140.211 427.901 139.091 429.737C137.971 431.573 137.411 434.233 137.411 437.718C137.411 441.202 137.971 443.863 139.091 445.698ZM173.435 454.706C169.359 454.706 166.154 453.165 163.821 450.085C161.519 446.974 160.367 442.851 160.367 437.718C160.367 432.584 161.519 428.477 163.821 425.397C166.154 422.285 169.359 420.73 173.435 420.73C177.542 420.73 180.747 422.285 183.049 425.397C185.351 428.477 186.503 432.584 186.503 437.718C186.503 442.851 185.351 446.974 183.049 450.085C180.747 453.165 177.542 454.706 173.435 454.706ZM168.488 445.698C169.608 447.503 171.257 448.405 173.435 448.405C175.613 448.405 177.262 447.487 178.382 445.652C179.533 443.816 180.109 441.171 180.109 437.718C180.109 434.233 179.533 431.573 178.382 429.737C177.262 427.901 175.613 426.984 173.435 426.984C171.257 426.984 169.608 427.901 168.488 429.737C167.368 431.573 166.808 434.233 166.808 437.718C166.808 441.202 167.368 443.863 168.488 445.698ZM211.605 434.871V440.518H203.905V448.218H198.258V440.518H190.604V434.871H198.258V427.217H203.905V434.871H211.605Z" fill="#00949B"/>
<path d="M74.3688 490.737C73.2331 491.779 71.763 492.3 69.9584 492.3C68.1539 492.3 66.676 491.779 65.5248 490.737C64.3892 489.679 63.8214 488.271 63.8214 486.513V475.662H65.9915V486.42C65.9915 487.571 66.3338 488.489 67.0182 489.173C67.7027 489.842 68.6828 490.177 69.9584 490.177C71.2341 490.177 72.2142 489.842 72.8987 489.173C73.5831 488.489 73.9254 487.571 73.9254 486.42V475.662H76.0722V486.513C76.0722 488.271 75.5044 489.679 74.3688 490.737ZM84.9909 480.026C86.3599 480.026 87.4566 480.461 88.2811 481.333C89.1056 482.188 89.5179 483.355 89.5179 484.833V491.997H87.4877V484.95C87.4877 484.001 87.231 483.269 86.7177 482.756C86.2043 482.227 85.4965 481.963 84.5942 481.963C83.583 481.963 82.7663 482.282 82.144 482.919C81.5218 483.542 81.2106 484.506 81.2106 485.813V491.997H79.1805V480.329H81.2106V482.009C82.0351 480.687 83.2952 480.026 84.9909 480.026ZM93.3787 478.206C92.9898 478.206 92.6631 478.074 92.3986 477.809C92.1342 477.545 92.002 477.226 92.002 476.852C92.002 476.479 92.1342 476.16 92.3986 475.896C92.6631 475.616 92.9898 475.476 93.3787 475.476C93.7521 475.476 94.071 475.616 94.3354 475.896C94.5999 476.16 94.7321 476.479 94.7321 476.852C94.7321 477.226 94.5999 477.545 94.3354 477.809C94.071 478.074 93.7521 478.206 93.3787 478.206ZM92.352 491.997V480.329H94.3821V491.997H92.352ZM105.647 480.329H107.84L103.173 491.997H100.793L96.1259 480.329H98.3193L101.983 489.827L105.647 480.329ZM110.525 487.096C110.727 488.139 111.201 488.948 111.948 489.523C112.71 490.099 113.644 490.387 114.748 490.387C116.288 490.387 117.408 489.819 118.108 488.683L119.835 489.663C118.7 491.421 116.988 492.3 114.702 492.3C112.85 492.3 111.341 491.724 110.175 490.573C109.023 489.407 108.448 487.936 108.448 486.163C108.448 484.405 109.016 482.943 110.151 481.776C111.287 480.609 112.757 480.026 114.562 480.026C116.273 480.026 117.665 480.633 118.739 481.846C119.827 483.044 120.372 484.491 120.372 486.186C120.372 486.482 120.349 486.785 120.302 487.096H110.525ZM114.562 481.939C113.473 481.939 112.57 482.25 111.855 482.873C111.139 483.479 110.696 484.296 110.525 485.323H118.318C118.147 484.218 117.712 483.378 117.012 482.803C116.312 482.227 115.495 481.939 114.562 481.939ZM124.736 482.289C125.405 480.843 126.618 480.119 128.376 480.119V482.243C127.38 482.196 126.525 482.46 125.809 483.036C125.094 483.612 124.736 484.537 124.736 485.813V491.997H122.706V480.329H124.736V482.289ZM131.68 483.479C131.68 483.931 131.905 484.296 132.356 484.576C132.807 484.841 133.352 485.058 133.99 485.23C134.628 485.385 135.265 485.572 135.903 485.79C136.541 485.992 137.085 486.35 137.537 486.863C137.988 487.361 138.213 488.006 138.213 488.8C138.213 489.858 137.801 490.706 136.977 491.343C136.168 491.981 135.125 492.3 133.85 492.3C132.714 492.3 131.742 492.051 130.933 491.553C130.124 491.056 129.548 490.394 129.206 489.57L130.956 488.566C131.143 489.127 131.493 489.57 132.006 489.897C132.52 490.223 133.134 490.387 133.85 490.387C134.519 490.387 135.071 490.262 135.506 490.013C135.942 489.749 136.16 489.344 136.16 488.8C136.16 488.349 135.934 487.991 135.483 487.726C135.032 487.446 134.488 487.229 133.85 487.073C133.212 486.902 132.574 486.707 131.936 486.49C131.298 486.272 130.754 485.914 130.303 485.416C129.852 484.918 129.626 484.281 129.626 483.503C129.626 482.492 130.015 481.659 130.793 481.006C131.586 480.353 132.574 480.026 133.756 480.026C134.705 480.026 135.545 480.244 136.277 480.679C137.023 481.099 137.583 481.69 137.957 482.453L136.253 483.409C135.833 482.414 135.001 481.916 133.756 481.916C133.181 481.916 132.691 482.056 132.286 482.336C131.882 482.6 131.68 482.982 131.68 483.479ZM141.53 478.206C141.141 478.206 140.814 478.074 140.55 477.809C140.285 477.545 140.153 477.226 140.153 476.852C140.153 476.479 140.285 476.16 140.55 475.896C140.814 475.616 141.141 475.476 141.53 475.476C141.903 475.476 142.222 475.616 142.487 475.896C142.751 476.16 142.883 476.479 142.883 476.852C142.883 477.226 142.751 477.545 142.487 477.809C142.222 478.074 141.903 478.206 141.53 478.206ZM140.503 491.997V480.329H142.533V491.997H140.503ZM151.978 482.289H148.874V488.613C148.874 489.189 148.983 489.601 149.201 489.85C149.434 490.083 149.784 490.208 150.251 490.223C150.717 490.223 151.293 490.208 151.978 490.177V491.997C150.204 492.23 148.905 492.09 148.081 491.577C147.256 491.048 146.844 490.06 146.844 488.613V482.289H144.534V480.329H146.844V477.669L148.874 477.062V480.329H151.978V482.289ZM162.776 480.329H164.946L160.185 492.72C159.688 494.042 158.988 495.046 158.085 495.73C157.199 496.43 156.172 496.741 155.005 496.664V494.774C156.436 494.882 157.486 494.089 158.155 492.393L158.365 491.95L153.278 480.329H155.448L159.415 489.477L162.776 480.329ZM178.612 475.662C180.121 475.662 181.373 476.168 182.369 477.179C183.38 478.175 183.885 479.419 183.885 480.913C183.885 482.39 183.38 483.635 182.369 484.646C181.373 485.657 180.121 486.163 178.612 486.163H174.855V491.997H172.685V475.662H178.612ZM178.612 484.133C179.514 484.133 180.261 483.829 180.852 483.223C181.443 482.6 181.739 481.83 181.739 480.913C181.739 479.979 181.443 479.209 180.852 478.602C180.261 477.996 179.514 477.692 178.612 477.692H174.855V484.133H178.612ZM195.011 480.329H197.041V491.997H195.011V489.99C193.999 491.53 192.529 492.3 190.6 492.3C188.967 492.3 187.575 491.709 186.423 490.527C185.272 489.329 184.697 487.874 184.697 486.163C184.697 484.452 185.272 483.005 186.423 481.823C187.575 480.625 188.967 480.026 190.6 480.026C192.529 480.026 193.999 480.796 195.011 482.336V480.329ZM190.857 490.34C192.039 490.34 193.027 489.943 193.821 489.15C194.614 488.341 195.011 487.345 195.011 486.163C195.011 484.981 194.614 483.993 193.821 483.199C193.027 482.39 192.039 481.986 190.857 481.986C189.69 481.986 188.71 482.39 187.917 483.199C187.123 483.993 186.727 484.981 186.727 486.163C186.727 487.345 187.123 488.341 187.917 489.15C188.71 489.943 189.69 490.34 190.857 490.34ZM202.147 482.289C202.816 480.843 204.029 480.119 205.787 480.119V482.243C204.791 482.196 203.936 482.46 203.22 483.036C202.505 483.612 202.147 484.537 202.147 485.813V491.997H200.117V480.329H202.147V482.289ZM214.394 482.289H211.29V488.613C211.29 489.189 211.399 489.601 211.617 489.85C211.85 490.083 212.2 490.208 212.667 490.223C213.134 490.223 213.709 490.208 214.394 490.177V491.997C212.62 492.23 211.322 492.09 210.497 491.577C209.673 491.048 209.26 490.06 209.26 488.613V482.289H206.95V480.329H209.26V477.669L211.29 477.062V480.329H214.394V482.289ZM222.676 480.026C224.045 480.026 225.142 480.461 225.966 481.333C226.791 482.188 227.203 483.355 227.203 484.833V491.997H225.173V484.95C225.173 484.001 224.916 483.269 224.403 482.756C223.89 482.227 223.182 481.963 222.28 481.963C221.268 481.963 220.452 482.282 219.829 482.919C219.207 483.542 218.896 484.506 218.896 485.813V491.997H216.866V480.329H218.896V482.009C219.72 480.687 220.981 480.026 222.676 480.026ZM231.461 487.096C231.663 488.139 232.137 488.948 232.884 489.523C233.646 490.099 234.58 490.387 235.684 490.387C237.224 490.387 238.345 489.819 239.045 488.683L240.771 489.663C239.636 491.421 237.924 492.3 235.638 492.3C233.786 492.3 232.277 491.724 231.111 490.573C229.96 489.407 229.384 487.936 229.384 486.163C229.384 484.405 229.952 482.943 231.087 481.776C232.223 480.609 233.693 480.026 235.498 480.026C237.209 480.026 238.601 480.633 239.675 481.846C240.764 483.044 241.308 484.491 241.308 486.186C241.308 486.482 241.285 486.785 241.238 487.096H231.461ZM235.498 481.939C234.409 481.939 233.506 482.25 232.791 482.873C232.075 483.479 231.632 484.296 231.461 485.323H239.255C239.083 484.218 238.648 483.378 237.948 482.803C237.248 482.227 236.431 481.939 235.498 481.939ZM245.672 482.289C246.341 480.843 247.554 480.119 249.312 480.119V482.243C248.317 482.196 247.461 482.46 246.745 483.036C246.03 483.612 245.672 484.537 245.672 485.813V491.997H243.642V480.329H245.672V482.289ZM252.616 483.479C252.616 483.931 252.841 484.296 253.292 484.576C253.744 484.841 254.288 485.058 254.926 485.23C255.564 485.385 256.201 485.572 256.839 485.79C257.477 485.992 258.022 486.35 258.473 486.863C258.924 487.361 259.149 488.006 259.149 488.8C259.149 489.858 258.737 490.706 257.913 491.343C257.104 491.981 256.061 492.3 254.786 492.3C253.65 492.3 252.678 492.051 251.869 491.553C251.06 491.056 250.484 490.394 250.142 489.57L251.892 488.566C252.079 489.127 252.429 489.57 252.942 489.897C253.456 490.223 254.07 490.387 254.786 490.387C255.455 490.387 256.007 490.262 256.443 490.013C256.878 489.749 257.096 489.344 257.096 488.8C257.096 488.349 256.87 487.991 256.419 487.726C255.968 487.446 255.424 487.229 254.786 487.073C254.148 486.902 253.51 486.707 252.872 486.49C252.235 486.272 251.69 485.914 251.239 485.416C250.788 484.918 250.562 484.281 250.562 483.503C250.562 482.492 250.951 481.659 251.729 481.006C252.522 480.353 253.51 480.026 254.692 480.026C255.641 480.026 256.481 480.244 257.213 480.679C257.959 481.099 258.519 481.69 258.893 482.453L257.189 483.409C256.769 482.414 255.937 481.916 254.692 481.916C254.117 481.916 253.627 482.056 253.222 482.336C252.818 482.6 252.616 482.982 252.616 483.479Z" fill="#121212"/>
<path d="M391.237 119.001H396.838V151.67H390.397V125.815L384.237 127.542L382.65 122.035L391.237 119.001ZM413.252 130.902C416.395 130.902 419.039 131.851 421.186 133.749C423.333 135.616 424.407 138.229 424.407 141.59C424.407 144.95 423.271 147.579 421 149.477C418.759 151.375 416.006 152.324 412.739 152.324C410.094 152.324 407.761 151.733 405.739 150.55C403.716 149.368 402.254 147.626 401.352 145.323L406.859 142.103C407.668 144.716 409.628 146.023 412.739 146.023C414.388 146.023 415.664 145.634 416.566 144.856C417.499 144.048 417.966 142.959 417.966 141.59C417.966 140.252 417.515 139.178 416.613 138.369C415.71 137.56 414.481 137.156 412.926 137.156H403.032L404.338 119.001H422.866V125.022H410.312L409.892 130.902H413.252ZM449.228 132.489V138.136H441.527V145.837H435.88V138.136H428.227V132.489H435.88V124.835H441.527V132.489H449.228Z" fill="#00949B"/>
<path d="M375.064 189.918C372.591 189.918 370.545 189.101 368.927 187.468C367.325 185.835 366.523 183.828 366.523 181.448C366.523 179.067 367.325 177.061 368.927 175.427C370.545 173.794 372.591 172.977 375.064 172.977C376.557 172.977 377.926 173.335 379.171 174.05C380.431 174.766 381.411 175.731 382.111 176.944L380.221 178.041C379.754 177.138 379.054 176.423 378.121 175.894C377.203 175.349 376.184 175.077 375.064 175.077C373.182 175.077 371.642 175.684 370.444 176.897C369.261 178.111 368.67 179.628 368.67 181.448C368.67 183.252 369.261 184.761 370.444 185.975C371.642 187.188 373.182 187.795 375.064 187.795C376.184 187.795 377.203 187.53 378.121 187.001C379.054 186.457 379.754 185.741 380.221 184.855L382.111 185.928C381.427 187.141 380.454 188.114 379.194 188.845C377.934 189.56 376.557 189.918 375.064 189.918ZM394.161 188.145C392.963 189.327 391.508 189.918 389.797 189.918C388.086 189.918 386.631 189.327 385.434 188.145C384.251 186.962 383.66 185.508 383.66 183.781C383.66 182.054 384.251 180.6 385.434 179.417C386.631 178.235 388.086 177.644 389.797 177.644C391.508 177.644 392.963 178.235 394.161 179.417C395.359 180.6 395.958 182.054 395.958 183.781C395.958 185.508 395.359 186.962 394.161 188.145ZM389.797 187.935C390.964 187.935 391.944 187.538 392.737 186.745C393.531 185.951 393.927 184.963 393.927 183.781C393.927 182.599 393.531 181.611 392.737 180.818C391.944 180.024 390.964 179.628 389.797 179.628C388.646 179.628 387.674 180.024 386.88 180.818C386.087 181.611 385.69 182.599 385.69 183.781C385.69 184.963 386.087 185.951 386.88 186.745C387.674 187.538 388.646 187.935 389.797 187.935ZM406.401 177.947H408.432V189.615H406.401V187.935C405.577 189.257 404.317 189.918 402.621 189.918C401.252 189.918 400.155 189.49 399.331 188.635C398.506 187.764 398.094 186.589 398.094 185.111V177.947H400.124V184.995C400.124 185.944 400.381 186.682 400.894 187.211C401.408 187.725 402.116 187.981 403.018 187.981C404.029 187.981 404.846 187.67 405.468 187.048C406.09 186.41 406.401 185.438 406.401 184.131V177.947ZM417.333 177.644C418.702 177.644 419.798 178.08 420.623 178.951C421.447 179.806 421.86 180.973 421.86 182.451V189.615H419.83V182.568C419.83 181.619 419.573 180.888 419.06 180.374C418.546 179.845 417.838 179.581 416.936 179.581C415.925 179.581 415.108 179.9 414.486 180.538C413.864 181.16 413.552 182.124 413.552 183.431V189.615H411.522V177.947H413.552V179.628C414.377 178.305 415.637 177.644 417.333 177.644ZM431.041 179.908H427.937V186.231C427.937 186.807 428.046 187.219 428.264 187.468C428.497 187.701 428.847 187.826 429.314 187.841C429.781 187.841 430.356 187.826 431.041 187.795V189.615C429.267 189.848 427.968 189.708 427.144 189.195C426.319 188.666 425.907 187.678 425.907 186.231V179.908H423.597V177.947H425.907V175.287L427.937 174.681V177.947H431.041V179.908ZM435.543 179.908C436.212 178.461 437.425 177.737 439.183 177.737V179.861C438.188 179.814 437.332 180.079 436.616 180.654C435.901 181.23 435.543 182.155 435.543 183.431V189.615H433.513V177.947H435.543V179.908ZM442.196 175.824C441.807 175.824 441.481 175.692 441.216 175.427C440.952 175.163 440.82 174.844 440.82 174.47C440.82 174.097 440.952 173.778 441.216 173.514C441.481 173.234 441.807 173.094 442.196 173.094C442.57 173.094 442.889 173.234 443.153 173.514C443.418 173.778 443.55 174.097 443.55 174.47C443.55 174.844 443.418 175.163 443.153 175.427C442.889 175.692 442.57 175.824 442.196 175.824ZM441.17 189.615V177.947H443.2V189.615H441.17ZM447.72 184.715C447.923 185.757 448.397 186.566 449.144 187.141C449.906 187.717 450.839 188.005 451.944 188.005C453.484 188.005 454.604 187.437 455.304 186.301L457.031 187.281C455.895 189.039 454.184 189.918 451.897 189.918C450.046 189.918 448.537 189.343 447.37 188.191C446.219 187.025 445.644 185.555 445.644 183.781C445.644 182.023 446.211 180.561 447.347 179.394C448.483 178.227 449.953 177.644 451.757 177.644C453.468 177.644 454.861 178.251 455.934 179.464C457.023 180.662 457.568 182.109 457.568 183.804C457.568 184.1 457.544 184.403 457.498 184.715H447.72ZM451.757 179.558C450.668 179.558 449.766 179.869 449.05 180.491C448.335 181.098 447.891 181.914 447.72 182.941H455.514C455.343 181.837 454.907 180.996 454.207 180.421C453.507 179.845 452.691 179.558 451.757 179.558ZM461.196 181.098C461.196 181.549 461.421 181.914 461.872 182.194C462.324 182.459 462.868 182.677 463.506 182.848C464.144 183.003 464.782 183.19 465.419 183.408C466.057 183.61 466.602 183.968 467.053 184.481C467.504 184.979 467.729 185.625 467.729 186.418C467.729 187.476 467.317 188.324 466.493 188.961C465.684 189.599 464.641 189.918 463.366 189.918C462.23 189.918 461.258 189.669 460.449 189.172C459.64 188.674 459.064 188.013 458.722 187.188L460.472 186.185C460.659 186.745 461.009 187.188 461.522 187.515C462.036 187.841 462.65 188.005 463.366 188.005C464.035 188.005 464.587 187.88 465.023 187.631C465.458 187.367 465.676 186.962 465.676 186.418C465.676 185.967 465.45 185.609 464.999 185.345C464.548 185.065 464.004 184.847 463.366 184.691C462.728 184.52 462.09 184.326 461.452 184.108C460.815 183.89 460.27 183.532 459.819 183.034C459.368 182.537 459.142 181.899 459.142 181.121C459.142 180.11 459.531 179.277 460.309 178.624C461.102 177.971 462.09 177.644 463.273 177.644C464.221 177.644 465.062 177.862 465.793 178.297C466.539 178.717 467.099 179.309 467.473 180.071L465.769 181.028C465.349 180.032 464.517 179.534 463.273 179.534C462.697 179.534 462.207 179.674 461.802 179.954C461.398 180.219 461.196 180.6 461.196 181.098Z" fill="#121212"/>
<defs>
<filter id="filter0_d_198_79100" x="0.0551987" y="298.294" width="322.8" height="322.8" filterUnits="userSpaceOnUse" color-interpolation-filters="sRGB">
<feFlood flood-opacity="0" result="BackgroundImageFix"/>
<feColorMatrix in="SourceAlpha" type="matrix" values="0 0 0 0 0 0 0 0 0 0 0 0 0 0 0 0 0 0 127 0" result="hardAlpha"/>
<feOffset dy="3.88916"/>
<feGaussianBlur stdDeviation="21.3904"/>
<feComposite in2="hardAlpha" operator="out"/>
<feColorMatrix type="matrix" values="0 0 0 0 0.864665 0 0 0 0 0.627037 0 0 0 0 0.627037 0 0 0 0.55 0"/>
<feBlend mode="normal" in2="BackgroundImageFix" result="effect1_dropShadow_198_79100"/>
<feBlend mode="normal" in="SourceGraphic" in2="effect1_dropShadow_198_79100" result="shape"/>
</filter>
<filter id="filter1_d_198_79100" x="515.372" y="368.299" width="336.413" height="336.412" filterUnits="userSpaceOnUse" color-interpolation-filters="sRGB">
<feFlood flood-opacity="0" result="BackgroundImageFix"/>
<feColorMatrix in="SourceAlpha" type="matrix" values="0 0 0 0 0 0 0 0 0 0 0 0 0 0 0 0 0 0 127 0" result="hardAlpha"/>
<feOffset dy="3.88916"/>
<feGaussianBlur stdDeviation="21.3904"/>
<feComposite in2="hardAlpha" operator="out"/>
<feColorMatrix type="matrix" values="0 0 0 0 0.864665 0 0 0 0 0.627037 0 0 0 0 0.627037 0 0 0 0.55 0"/>
<feBlend mode="normal" in2="BackgroundImageFix" result="effect1_dropShadow_198_79100"/>
<feBlend mode="normal" in="SourceGraphic" in2="effect1_dropShadow_198_79100" result="shape"/>
</filter>
<filter id="filter2_d_198_79100" x="260.629" y="0.773763" width="313.077" height="313.077" filterUnits="userSpaceOnUse" color-interpolation-filters="sRGB">
<feFlood flood-opacity="0" result="BackgroundImageFix"/>
<feColorMatrix in="SourceAlpha" type="matrix" values="0 0 0 0 0 0 0 0 0 0 0 0 0 0 0 0 0 0 127 0" result="hardAlpha"/>
<feOffset dy="3.88916"/>
<feGaussianBlur stdDeviation="21.3904"/>
<feComposite in2="hardAlpha" operator="out"/>
<feColorMatrix type="matrix" values="0 0 0 0 0.864665 0 0 0 0 0.627037 0 0 0 0 0.627037 0 0 0 0.55 0"/>
<feBlend mode="normal" in2="BackgroundImageFix" result="effect1_dropShadow_198_79100"/>
<feBlend mode="normal" in="SourceGraphic" in2="effect1_dropShadow_198_79100" result="shape"/>
</filter>
<linearGradient id="paint0_linear_198_79100" x1="417.654" y1="168.007" x2="417.654" y2="769.855" gradientUnits="userSpaceOnUse">
<stop stop-color="#33A9AF" stop-opacity="0.16"/>
<stop offset="1" stop-color="#FF5573" stop-opacity="0.16"/>
</linearGradient>
</defs>
</svg>
